<svg width="16" height="15" viewBox="0 0 16 15" fill="none" xmlns="http://www.w3.org/2000/svg">
<path d="M8.29311 0.31052C8.48064 0.111694 8.73495 0 9.00012 0C9.26529 0 9.5196 0.111694 9.70713 0.31052L15.7072 6.67393C15.8947 6.87281 16 7.14252 16 7.42375C16 7.70497 15.8947 7.97468 15.7072 8.17357L9.70713 14.537C9.51853 14.7302 9.26592 14.8371 9.00372 14.8347C8.74152 14.8322 8.4907 14.7207 8.30529 14.5241C8.11988 14.3274 8.01471 14.0614 8.01243 13.7833C8.01015 13.5053 8.11095 13.2374 8.29311 13.0373L12.5862 8.48431H1.00001C0.734793 8.48431 0.480436 8.37258 0.292897 8.17368C0.105358 7.97479 0 7.70503 0 7.42375C0 7.14247 0.105358 6.87271 0.292897 6.67381C0.480436 6.47492 0.734793 6.36318 1.00001 6.36318H12.5862L8.29311 1.81016C8.10564 1.61128 8.00032 1.34157 8.00032 1.06034C8.00032 0.779117 8.10564 0.509406 8.29311 0.31052Z" fill="#0D0D0D"/>
</svg>
